<mxfile host="app.diagrams.net" agent="Mozilla/5.0 (Windows NT 10.0; Win64; x64) AppleWebKit/537.36 (KHTML, like Gecko) Chrome/130.0.0.0 Safari/537.36" version="24.8.3">
  <diagram name="第 1 页" id="DwqYFeJHm77tr7_y6Qva">
    <mxGraphModel dx="724" dy="366" grid="1" gridSize="10" guides="1" tooltips="1" connect="1" arrows="1" fold="1" page="1" pageScale="1" pageWidth="827" pageHeight="1169" math="0" shadow="0">
      <root>
        <mxCell id="0" />
        <mxCell id="1" parent="0" />
        <mxCell id="In7WwxdyDKiCLf6W2db1-1" value="" style="shape=image;verticalLabelPosition=bottom;labelBackgroundColor=default;verticalAlign=top;imageAspect=0;image=data:image/png,iVBORw0KGgoAAAANSUhEUgAABLAAAASuCAYAAADS/dAkAAAAAXNSR0IArs4c6QAAAARzQklUCAgICHwIZIgAACAASURBVHic7N3bcuM4sgVQ2dH//8n2efDhmCXrwgtAZCbWipiHKburSBAEE1sg9PH1/f19AwAAAICgPkcfAAAAAAC8IsACAAAAIDQBFgAAAAChCbAAAAAACE2ABQAAAEBoAiwAAAAAQhNgAQAAABDaf6MPAADgSp8fH6MP4bSv7+/RhwAAcCkBFgCQQqvgqUL4oy0AgNkIsACAIfaGMMKWX63awjUAALIQYAEATW0NRYQh4+29Bq4tADCKAAsA2OVdiCG8qGvrtdVHAIDWBFgAwD96hA8VNk5n+7V/93sCLgBgLwEWAEzoVYDQKzwQSuTWMoQ8E3DpRwAwJwEWABQlBCCrV/1TvwaAOQmwACC5ZxN6k3kqOhJuuRcAID8BFgAk8miCbnIOP57dC+4bAMhPgAUAAVlJAu08um/cYwCQiwALAAazOgSuZ7UWAOQiwAKAC5kcQ2xbV2u5bwHgWgIsAOjofuJr0gv5bAm13NsA0JcACwAasUoD5nF/b7v/AaAvARYAHGQFBrCwSgsA+hJgAcBGJqPAHu9WaRlDAGA7ARYAPGGyCbQk0AKA4wRYAPD/TCaBKwm0AGA7ARYA0zJZBCIRaAHAcwIsAKZhMghkItACgF8CLADKMtkDKhFoATAzARYApawndCZzQGWvAi3jHwDVCLAASM0KBIAf6/HP2AhANQIsANKxygDgNauzAKhGgAVAeFYSAJxjdRYA2QmwAAjJagGAPqzOAiAjARYAYZhEAVzv2eos4zAAkQiwABjKZAkgDmEWAFEJsAC4nEkRQHxbwqzlz43lAPQmwALgEkIrgLzebQIvyAKgNwEWAN0IrQDqWcbzZYxfh1eCLAB6EWAB0JTQCmAez1ZmCbIAaE2ABcBpr14nAaCez4+PP+HUozDLhxoAtCLAAuCQRwHVenKyhFgmLADzeRVmeS4AcIQAC4DN7j9JNxkBmM/eDyfuwyzPDgCOEGAB8NajDXq3TGCswgJg7dHKLM8IALYQYAHw0KPVVsIogLm1fA7cf5vh+s8A4J4AC4D/eTSJOBtcWYUFwCvPvsnQcwOANQEWAA9f4/BqBwBXu//wZP1nAMxNgAUwqWerre7/rAWrsADyu3IcfxRkrf8cgPkIsAAmY7UVAFncf8DieQUwLwEWwASefXptIgDAFqNX0T4LstY/A6A2ARZAYc8CqhHBldcIATjr0YcwPowBmIMAC6CYV59KK/IB2Cvqhw9WZQHMRYAFUMS71VaPfnY1q7AAaO0+yFqeNeufAZCfAAsgMautAOgp04cOj75RN9KHOACcI8ACSOhVOBU9uLIKC4Cenn1ZSfTnIwCvCbAAEskcXAHA1bxeCFCHAAsguC2vCT76WWRWYQHEV2mcfhVkrX8OQFwCLICgrLYCgLYe7ZNlVRZADgIsgGAEV9DXeuI6inuY6CqtvnrEPlkA+QiwAIKYLbjyGiEjne13Z/puhAAN+GWfLIAcBFgAA1Xc3wqA3Gb9cME+WQCxCbAABphttdUzVmEBEI19sgBiEmABXEhwBUBkPlT4ZZ8sgFgEWAAXEFw9ZxUWANHZJwtgPAEWQEfPilt7agBAPoIsgHEEWAAdvAuuFLn/sgoLYDzj8HaP9snyjAfoS4AF0JDgCgDm8WifLM98gD4EWAANCK4AyMzqq/PuV2WpAQDaEmABnPCoOLW/1TFeIwSgAkEWQB8CLIADXgVXClQAMvHhQR+CLIC2BFgAOwiu+rIKC4Bq7msGdQPAMQIsgA0EVwBU5EODa61XZakjAPYRYAG8cF9c2t+qP6uwAKhOkAWwnwAL4IFnwZXiEvJrFZIKWoGzBFkA2wmwAFYEVzFYhUVkS99cr8jc+99CBPpjHIIsgPcEWAA3wRXMpkVIKmgFWrPXJsBzAixgaoIrAGYkfI1PbQLwLwEWMKV1MWi5fkxWt9Db+jXALf3s0e9u7afGGOAoQRbADwEWMJVHwZVCEOa1ZWL4btL4Kggz4SQiz76cfCMyMDsBFjAFwVVOVmFxlUcTw/ufHfnv9V2gNRu+A7MSYAHlrb8xTBgCvHJ2fDC+EJ3nYB2CLGA2n6MPAKCXdUG3FOwKu3zWr2cBAP+6/+ZCz0ygKiuwgHLsDQEAzOT+NWYrsoCKBFhAGYIrAHjO64P1vdrPDyA7ARaQnuCqPpu5A8A+r74hFSAjARaQmsIMAN7zIcCc1iuyXH8gO5u4Ayn5xp352MwdAN57FFatv40ZICsrsIBUHoVWPlUEgOc8J7nd/u6PpU8A2QiwgBQUW9xu9sICgFe2PCMFWUBWXiEEwluKsWcFllfLAOAxoT/PLLWVGgrIwgosICyfDPKIVVhE92gyqL8CvR19Nvq2QiALARYQzpEiSqgBHNVq7Hg1dhmfgMi8VghkIMACQjHJA67UMrx69fcI2RlBn2OvdZCl7wDR2AMLCGH5auczxZJ9HObhWtPCVeHVQr8FemkdOC3jlTELiMQKLGAoS9UBoD0raDjLa4VANFZgAcO8+3ZBeMVqFs64evUVQC+9xyHfVghEIcACLtfidcFnFFhAZMYoriBYpQevFQKjCbCAS1l1RUvCAI4wuQequHo8sxoLGEmABVyi56qrewor4AqCMCLSL7mC1VjACDZxB7qy8WdcVa7NUkRnPw8A2GP0s88m78DVrMACuhn5uqBVWM9duRoOAKjNa4XAVazAAprzSVxMj66L1UtwjPuGiPTLeUS81usQK9qxATUIsICmIhVUwpkfMxSTrjUAjLd+rdAzGWhNgAU0MUNIksl6Gf+7ayL8AcjPOE4kVmMBPQiwgNMUzXHMXCwK4riKfgaMlGUMshoLaE2ABRyWISyZJdTIcC0gilnGBeahPxOZ1VhAK76FEDhk5DcM8mv5RsHb7VxRWOXbg6qcB3GdDQoEDcAZWccQ31QItCDAAnZZApNMxVPFgml9HTJdC4ii4rjAnLI9k5nbMvYaf4EjvEIIbKZIHuvVxuxeifqlLehFvwJGqjIG2RsLOEqABbxVYd+CzKHGVe2fuY3giD19vsW94f4C+GVvLGAvARbwkgnXOHuLOgEU7Pfuvmk1uXJv0oN+NY+q19pqLGAPARbwUMVPxLIEPCPbPksbvVPlPLjGq/2wWvQhfRHgNauxgC0EWMAfJltjtPw2QdcP9ul5z7gf6cFYTzVWYwHv+BZC4H8yfsNgNdq+Hd8yBxCfb6R7b7bazDcVAs8IsIDb7fZbHFUvkCKHGpGPDYA4qgUaAgvuLTWpPgGsCbCAcoXw7M4WfJUKxkrnAlDR+tV3QdZfs9donuPAmgALJjbrK4ORi6HIxwbAeNWf24Is7ukPwMIm7jCp6gXw7Gzm/ktbAOSz3tD7/s9m4dn1ywbvwO0mwILp+IriH0KN57QLAFd69Uxe/5kahvVKdf0A5uMVQpjILBu1Z9fyNULL7QHqmP0DhpleL5z9Wr9ig3eYlwALJqEQmtPeAq9qP1HosqYvQG4zBVk859kO8xFgQXGzbtS+RfXCZ/1Kxpbz1E+YSe9738Sa1ozRf1UNslzr7Spef+A5e2BBYQqgvFrv0fVqz4hZ9pKw7xlrvfvD/QbU+h28duaetOH73GzwDvMQYEFRHuLbzBRqPCrw138Os7ni/jexogX9Zxsbvs9tppoOZiXAgmIUbHWcLcS2fKPTbBS33LuqT/jmLHiv5b2RdRWkZ9Q5xlqozR5YUIhvGTym+l5YwGtXjQHGZo4QaJxTdZ8snvMthVCXAAuKUODWdLQA0x+eU9TyyJUhlv4H18sQanh2txX9egP7CbAgOd8y2IYiB7BKA+pTL83FuA612AMLEhNczWHPHj32fYBzbLpOJPrhPFzrfozrUIcAC5LyEJ7L1hVi+sQ2NnPnHX0EoBbjOuQnwIJkrLDpJ3phE/W4oKroYwK16XvzcK2v41sKITcBFiSiwOFq96u+KvU/4QRb6CcAtXilEPISYEESHrLXMFn98ezTSZ9aMiPjAlfT36A/Yzvk41sIITjfMsjVlv72qM9l+BryPSqdC33pK0AParyxfEsh5CLAgsBeBQn0M/NEVSENz808NnAd4zBcq9qHc1CZAAuCUsBytT19rlKhV+lc6E9/AVpR68VifIf4BFgQkIJmPEXMe9qIWZ155cT4DhCX2gZis4k7BGKDbIAcfIsVPehP83Ct41qHWK4RxCLAgiAUMmRU5Rt8qpwH19vad0yGmNGrlSzuBSLzIQXEJMCCADwcYxJqAFu8+rRecMVW1Z43785n5nuj2rWuTC0IsQiwYDAPRbKrUtxVOQ/GWH9a/+jPYSZbxlIrXMhCfQBxCLBgkJk/ecwkW9GS6VhhlJ73iPuPIyqN3ZXOpQftk5N9sSAG30IIAyzFiwcgLSmKz/PtQwDXMu6SxVK7668wjgALLiZkyEexAkAvleqCo+fiOUsm+iuMI8CCC1UqUolldN+qVMxVOhcA4hj9rKYdtQKMIcCCiyhacpuhUJnhHAEiqVQbnD0XzyCy0WfhejZxh85s+AgAMLdKYSW/bO4O17ICCzqyWTtX8SlgW9oTYLtW4Yyxl4xs7g7XEWBBJz5pq0dx8pz+DrCPcbOPiM9p13oO6kToT4AFHShUID+FKMD1zoy96i9GUztAXwIsaEzxVJvC5C99HmAf4+Y8XOv5qBWhHwEWNKRIYaRRBVPlPq8IBchBDUYk6gfoQ4AFDXx+fCicJqIoAeCoivVC6+ei5ywVLP1YX4Z2BFhwkm8aJBJFPwAjjHz+RA0Fox4X1/ENhdCWAAtOUJjMq2Ixoj8/VvFaA2MYZ2FOagloQ4AFBylCiUqRBMAI61emzj6Htj7LotZjUY+LcdRncJ4ACw5QlFCNPv2aopMj9BlmtLwy5ZkCf6kn4BwBFuxkos8ichGy55NrfRr6iDxGcD1j7X5Z7yHXmley9muI4L/RBwCZKEjI5L5AWvfd5c/15+2W9tRmADEYk8lKTQHHCLBgIw8ZHolegDwKre7/HOgn+hjBNfSBebjWbOX5APsJsOANK1Wo4oo+/GhJfKV7R7HJEfoNHPfs/nFPUcF6tbz+DO8JsOAFxRFbmJz+eNYGCjMwTszMdZ+Ha80RS5/Rf+A9m7jDEx4isM+z+2X5NioblgLQghqNitRK8J4ACx5QGLGXouO9Km1U5Ty4nr4zH/VEG+4dZqGvw2teIYQ7ik3ox2tURDFyguAeoIJRr4dHvX+iHhc56U/wmAALVpaHhYcG8IpxIj/XDvbzbbbQ13ouos6Av7xCCP9v/ZCwfJcj9JtttBMwg2qTz+V8lv9dLfIHB1GPi1zu5yLLnwG/BFhwe1x4mGQDrxgjgFkIaKCvZ3OR5WfADwEW03tVlJmgspc+s412AiqrFPhEOpcox7EWqX3I6d1cZPkdQIDF5LY8DNbvoUN2+nJbgjigMuEM9LNnnyv1BvwQYDGtPd+es+z34MHBFtH7ilAWoB+hzzxca45a7yn3znr/N7Ubs/MthEzp6Fc/R95AFLa478O+UQqAR3rUO48m3549zObIvXUfYrlvmJUAi+kcDa8WHhxskaWfrI/v7L0xqyzXGujPWPDcs7bx7GEmZ8YIIRYIsJhIy5UmHhxk9qz/Xrkqy/0DEFfLMfpdQHX/7MnybPAcY68WfebR64T6ITOxBxZTWD8wWg3y3kOnqmVPBntlbWc8APhr7z4/xlKqahl4rkMs9wyzEWBRXs+lth4avBK5f2w9tvsgq8X5+NQaqMjY9q/K7VH53Giv9xwkcr0JrQmwKO2K98Q9NJiBVVnvGQsAfrTY5wcquGoO4r5hFgIsyrpyk0MPDZ6J3DeOHtujVVlb/p7l93xqDVRTaWw7ey6V2uKR6udHO1fPQSLXnNCKTdwpaURxYTNFZnPfz98VTTPcF77gAQDmNnI+oA6hOgEW5awH7asH8FH/LrFFLiZaHlvE8wPoLer4PkL1tqh+fpw38kP09RdW6atU5RVCShkZXq1ZwgsAZHS0hjFhZnaR5h7mIlQlwKKMKOHVwoODNf1hHq41zCNCvRHBDO0wwzlyXIT+8SjEgmoEWJQQLbxamMiSgX4KwNqe50KkugtGiHQPPLp31XhUIsAivajh1UI4APNx3wMVvBvHetRdEWs5eCZif/U6IZXZxJ3UoodXC5spcrvF7geRjw0goupj5rq+evc71VW/1hwTuV/Y2J2qBFiklSW8WnhwwFzc80AFV45hxkyyyNBXhVhU5BVCUsoWXi0s4SVyH4h8bACRZKo9OMe15l6mPuF1QqoRYJFO1vBqsTw4PDygPoUiwDYZazrmk7GfCrGoRIBFKhkfGo98fX97eEws8rWPfGwAEVSpRSKJ2qZRj4vrLR8+V+kP6j2yEmCRVoWHiIcHEWW/rwDIo0I9R21LH83cT805qEKARRrZXx18xgMFanOPQx2V6g9ec6253Wr1A68SUoEAixSqhlcLD5D5uOYAzK5iTUcdFfunEIvsBFiEVz28WniAMLPqfd/9DfCr2n5C1FO5fwqxyEyARWizhFcLD5C5uN6/fDsnEN0MdcgVMuwn5FrPbYbrL8QiKwEWYc0WXi08QJhV9W/nrHxuQE7LBwf3/+tplnqOnGaec6hTyOC/0QcAj8waXi2WB8hs5z0j1/qvdQGlXYAIKo7Tr85p5jG44rVmmxmv/X0dqi4lOiuwCGf28GrhlSpmtl6NVeke8OkmMNqW/aeqr4iFe+YcVmKRgwCLUGZ+eDyigJyDa/xc1SALyKNSbbJ3/6nZnk+VrjXbue5/zXbvk4cAizDuHx4eJr88RJjVeqWA8QDguKN1lRqEqnwb5q9H97l7n4gEWIQgvHrPQ4SZVA6u3MuQh3pkHq71XKrWGGcIscjAJu4MJ7zazsaKdbm2P2beOBigl9bPl0cTWuM2Wai3nntUj6pRiUSAxVDCq/08RKjmfuPQGbiPgYxefciQ+QMI4/E8XOv3hFhEJsBiGOHVcR4iNc12XTNPdoD6qozHZ89j+e+3fHPh8vvr/w9RVLmnryDEIip7YBGCwXA/76STVeX9rfZwDwNZ7KnTfIMyEZlr7Oc+JiIBFkOsHyIeKMd5sNRT+ZoKroAs1Cb/qvztha51fa7xcff3cZb7mroEWFxOeNXW8iDxMCEqwdVzCkGgp9F1ljGO0UbfAxUIsYjEHlhcykOkD4FgLRX2GJhxY3aghuzjb0vV26L6+c3O9e2nQq1KTgIsLmPT9v48TBjN5r0AwEhqkfZs6k4UXiHkEsKr61jWywheEzzOPQtxVKpPWn37YFXVz29WapF+HtUrahiuJsCiO+HV9TxM8styDQVXAEAE5hj9CbEYTYBFV8KrcTxM6E1w1Y77FWhJvfWa9qnHNb2OEIuRBFh0I7waz8Mkt+jXz/0MVFKtTjnz/KjWFtSmv15PiMUoAiwu4cEyjocJ5OBeBVpZVscur3lDVeYY46hbGEGARRfrh4kHy3geMHm5dgD9Va1VRgdZEds14jFxjGs53n2dqm6lNwEWzQmvYvJJLMSn8AN62BNkqd3IQD+NQ4jFlQRYNCW8im1dwJKHawbQz0z1yn2Q1fPZErFdIx4T+7mO8QixuIoAi2Y8TPLwUAGAeS1B1v2qLLUc0emjeZhv0IMAiyZ842A+HioQk3sTrqNe6bM6O2K7RjwmtluCVtcwLt9MyBUEWJwmvMrLQyUP1wqAnkZv+A7PLHML84v4hFj0JsCiKeFVPh4qEI/7EhjlbJAVsRaMeExs49rlo4ahJwEWp9i0vQYPmhxcJ4B21C2vXbnhOzziHs3Lpu70IsDiMOFVLR4sEIt7Eojg2Ybvj0SsByMeE++5bvkJsehBgMUhwquaPFjic40AzlO7HGOfLK7g/qxDiEVrAix2E17VpjAFAF55FGSpCWlBP6pHiEVLAix2EV7NocdXatOOazMP1xraU7+0E71ecK1zcb3qEmLRigALeMrDBQB4Zwmy4Cjh1Q91N7wmwGIzq6/mJMSCsdyD0I76ZR6udR6u1Y+lHao+863CogUBFpsIr+bmAROPawIAZLbsoWZe8e/8qnKNJ8TiLAEWbwmvuN08YGAk9x/AdurV+JZr5Do97q+Vn/tCLM4QYPGS8Mq76GseMLG4HgDbzVrHQDTuxV+v2qJynSfE4igBFpvM+qCp/i76EdoDxnDvAbw3a82ahevza0tbVH72Vz43+hFg8dQ6vJnxQTPLu+hHaI84XAuA92atZSAS9+GvPW1RudZbn1vl86QdARYPCa/mehf9iKU9tAkAAK/MOqd4RFv8S4jFHgIs/hBezfku+hHL5pvaZCzXYB6uNew3az0zI9c6Jtfl19G2qP78F2KxlQCLf8z+gNnzLrqB9ZcHDQAA92afW6ydbYuZ6u2ZzpV9BFg8NOPDZu+76AbWf2kPuIZ7DbabsZ6ZlWsdj2vyq1VbVK4BKp8b7Qiw+J+ZXx20nLcN7TGOtgcAIljeVJhtPnGVyjWfVwl5R4DF7XYTXlnO2472gP7cZwC/Zqxfo1quhevxq0f/rFwHCLF4RYCF8Mpy3ua0xxjaHeDXjHUNjOSeu17Vuk+IxTMCLG6325wPnNbnbHD9l/aAvtxjAHPWsBG5Do/1apf1SreqtUDlc+M4Adbk1sn2TDxkr+HBcz1tDuA5D1dyv13rvr0r137rt4SqniP7/Df6ABhn1vBq0fN99Fnb9JH7JcDAvBSfQEtqrvFcg2s9a+/Kc5D7EKviObKdAGtSMwcK64Fv5na40rq9tXV/HvDzyHStMxwjNWS5JyA799q13rV3pppgLyEWC68QTmzGG//RkltLUq+jrQEA8hMiXOfz42Nze1eutSufG9sJsCY0643/auA3IF5HW0Nb7in4ZVI9D9d6HG1/nfVm7fxQ98xNgDWZWV+Z2/KgNRheR1v3p42BWRn7oB/h1T5n6rGjbV25BrSpOwKsiQiv3js7GHqob+fBA+24n+DHemsA90Rd6q3r7XmNjfPOtnXlukCINTcB1mRme+gcGfwVvtfx4OlL+wKzEmRBO15jO2dvPdYqKKxcB1Y+N177+Po2Es1gxk9MWpzznr9jxjZuRdv1o23n4nrDY7OuQq/IOHct7d3OOnB51Kbvfn7m3616DY3t8/lv9AHQ34xfOdrjk4tZ2m6E2frnlbTtPHwSCc8tY6BnOmynfmhr3ZaPntm9araqteD6nCqeH49ZgVXc/c08w83d4xxffSKiGG5HW/Yxw30/M/cN7NdrpQN9eZ5dR1v/61ng1OPf6TGPqXYtH51TxfPkLyuwJlM1gV/0PLf7T2/v/5zzfIrSR/X7flaCKzju0UoI9xL8UDP8unJ8aN3uVcc2/XNuAqzCnt3cVV+L6x1e2cDyOgIXeK7i+A0jeb0Qfqm/fmVui8zH/sy7Mdr8YQ4CrKLe3bwVV7pkGbRe7VMT/divlOV6whW87gT9CbJiUxP0p41/ZW6LzMf+zNZzMn+oT4BV0J6bttpNHv183h2bovlf0a9nJtoyJ2MCXO/RlgHuQapTI/zI/tyteB33npOatzYBFuVu8sznU3Fl3FmZrycclb2AhgrskxWHOqAffftX9n6W/fgfqXhOnONbCIs5c5NXGyB6bIR45u/b+99Xux5naY82tGNsJhIQm3t0DM+uPrTrryhtceQ4qo5LV8+9yMEKrELO3qTVVrpkP5+qm+0flf16wjNeU4I87JN1Pc/+PrRrDVWvY4vzMneo6XP0ARDLOjSpoNX5jPoEYPnWw0rX5AxtcZ42jOPz4+OfbzdVYEEe6+ezMZVsTOr/Fak99tRpkY67parnRRtWYBXR8kavllZXOJ8K59CKlWlkp/9CHTZ870vt0542je9drVu5jmjdP82h6hFgFdDjpqx2s585n0rtUIXN7smocsEJs7PhOxmom/6K2iaPwvH7n1XT61pUm9fOzibuyfW+GasVYaM2Uo/291SiTY7RbtepNo4C27j3z/Gcakt7PqZdxrtqrHSta7ACi5eqrXTZ+vpZ64FU8t+PtiUirxMBNnwnCnUSUemb7CXASuzKG75SSPCqoIxeZFa6Di1pl/20WR/RxxDgevbJYiTP+jHc7+9d3TfVvjUIsJIacfNVu+mvLiirtV802peRBFfAO5k+MBvN87wN7XitZ3MKYdZfo/qm+UJ+Aix2qXjTVzqX2VXsnz1pr/NMQoEjvF5IT/rVdi1qoXftLbz+l9qTMwRYCY2+6U16j9N2/WljevNJKtCKIOsvz/BztN91jty31fYX3ivCeZsr5PY5+gDYJ8rNtt4MHaLRP7fTVtt9fnz8bwxe/gfQwjKmLOMMHBFlnhDBnvtoby10Xw8cMWP9Fal/ztj+VViBxWHS62O02zW2fuMkvKMfAVeZfcN39dFx2u7XkWDiXd046z3Ziv5JKwKsRCLe+MKY62nr7WZfps05gitgFHvmsIc659fSFkdDrOXvePYz9ovaP81jc/r4+nbFMoh+cymu9ot+TavR3q9pnx8+YQWiql5reQ4do91+rdsiQ7tkOMYzsoxZ1a9DNVZg0USmh0ULs5xnJT5l4ZUsRRYwLxu+c09d88M9EY++SS82cU8g0wBgQ7zttNX1tPlzs7ZNi41YAa5kw3dut1zzg56yPsMrX79s5zZrDZyVFVjBZRsAbjcrXYhN/+R282ktkF+lDd89l/fRXj+0QzxZr4n5QR4CLLowCGyjncbQ7o9Vb5cKkzyAezZ8n0vl5/Qemdsh87G/UvW8iEWAFVj2QaD6ZDgy357ynv45DxM6YBYZ98nyLN4m0zXtTZ+Jp8I1MTfIwbcQBlXp5ql0Lmstz6vV3/WquLH65LGq/fOMKm2i2Adml2EcrPLM6Ukb/draFlHbLOpxnVHtnKqdTzVWYNGdNPsa79r4/hUD1+PHeuNGbVKD6wnwI/o+WeqR97TRr+xtkf34H6l4TsQmwAqo4kBQMcSKdk57jiPasY+2LvC1SU5RJ2cAEdgnKyd1yY8KfbbiSBY/qQAAIABJREFUtax4TrebeVJ0XiEMpvrNUuEBdK/FNRt13av3tyO0yY8s7VBxTAG4wujxM8tzZhTt8+NIO0Rru2jHc9boseMq1a5bFVZgcamKK13OpvQj28InDH9pkxxmKZ4Aesm44fss1CE/srdDxXsr+zUhv8/RB8CvmQaE9b5DFVQ7n9m5nnHb4PPj439j5SzjJUBPy3i6jK9XmKnm3Uvb/IreDs/umaq1ymx9M2otPDsrsIKYbUC43eqtdDlyPhHOv9p1aEW7xGF/K4D+om/4PgN1Ry6P7pn1n1cya980H4hHgMVQ1QaFPd9oV+m8q6rWP/caff4Vl94DRGfD9zFmrjeyq37d9E0iEWAFMPugMHqS3Jo9JWqp1j8zcO8AxNCjpvFM/ZdnHpG5X80FohFgEULFgeHZsuL7nxNfxf651ZXnrogHiMmHc33MWluQg/5JRAKswQwMv6qGBNXOZ1Z7Xg9lH+0KkMPZfbIq1nlHaYu4XBttcK/qPDUjAdZAboK/DA5Eti7c9dFzbBIMkJd9ss5RR8Q2+3xk5nN/ZfZ+EYUAi3CsdCG62R5gLc/XvQ1Qy9bXC2d6br6iHYhKjUYGAqxBPLxes9LlOtr4mNlCrLMURQC12SfrPXVDHrPVeTOd6xmz9YuIPkcfwIx0+u3Wq7FoT188Z6b+efRcPz8+/tfP9DWA+pbxfhn/bzf1xu2mDYhL39xnpvo/IiuwCE/S3Z5PR9vRP/+yvxUA776NeSbqBKLSN8lGgHUxg8QxQoJz7otH7djWLP3z3XkKRgG4N/szYYb6gJz0zeNmqf0jEmCRhoHix5FPMmdvsyvM3D8FVwDw16x1AfHpm2QlwLqQgeK8qiHBnlCq2rlXUrV/rq3PUXAFAH95PhJZ9Vr1KjPU/RF9fH1r8Svo3G1VbM+K5zSr6oVr9fMDgKPUc+O1uAZVr2PV8xpJm17LtxCSUsVvf6h4TrNafwNTRb5READ+MpGNoXINdob+SQUCrAsYLPq4/4rmCjxwa3E9AWAO6v06ql3LZb5U6ZwiUe9fS4BFahVXulQ7n9m5ngBQm3Dgr9G1z5H6q2LQs5xPpXNibgKszqoNglFVCwmin0+1lW+9Rb+eAMAxav3HstU+FYMeffM62fp7ZjZx78igcb1qbR79fLYM1JGP/2rRrycAsJ3n+nuj22hdqz46jqpfTDO63Wel3fsTYHWkA49Rrd2zPlirXYdWtAsA5Od5vl2Utnr0wWuE42otSnvPSNv3J8DqROcdq2L7ZzqnTMc6gvYBgLw8x/fTZtfQzuO5Bn3ZA4uSKr6HnOWcDNrvZbmWAMC/1DlEpW8yAyuwOjB4xFHxWkQ+p8jHFlHW10MBYDae2eepE/vRtrG4Hv1YgUVpFVe6RD0nA/V+y7fdRLyeAMCPit9QN4Kapw81ODOxAqsxA0hMFT81i9TXIh1LVtoQAOLxfG5Pm7ZRcX5TiX7ehxVYDemkcVVc6VLtfGbnegJALGr7PtQ851kVGJ9+3ocAi6lUG0giPLQUd+1U658AkJX6pi81z3H6JjMTYDViIMnDA7Md/b49/RMAxlLfXEPNs5++mYs+3p4AiykZTM7zAO1H/wSAMdQ311LzbKdvggCrCYNJTh6Yx+nz/emfAHAt9c0Ye2qeWWsjfTMvNX1bAiymZkDZzwP0OvonAFxDfTOWmuc5fRN+fXx9uxvOMKDU4Dpuo53G8DXJANCHZ2wsr2rNGevQGc+5KteyDSuw4OZTny0MuuMsX5OsjwJAO0tto76JQ73zS+0NfwmwTjCo1LI8MD00/9LXY1DUAUAbahuiWuYj+mct6vg2BFgHGVRqstLlL309Fv0TAM5R28Q2c61jVWBtM/ftVgRY8IDB5YcCLyb9EwCOUdvkcF/rzHDdZjhHOEuAdYDBZQ6zhwT6eWyz908A2Ettk8tMtY6+OY+Z+nUPAix4wQBDVAodANhHXZfPDNdMTQfbCbB2MsDMZ4YH5z39PDbXBwCOmbGuy65yzaOmm5Nx6DgBFmww0yDjQRqb6wMA58xU11VRsfZR08F+AqwdDDJzm6HY0cdjc30AoI0Z6jriUtNhDDpGgAU7VB5oPEhjc30AoK3KdR1xqengOAHWRgYaFkuxU63g0b8BAKCPZf6g5mYhRN9PgAUHfH1/G3C4jGIHAPpQz3GFpZZTz8E5AqwNTB55RtFDb8YfAOhLPUdPajleMf7sI8CCkww69KLgAYBrqOfoQS0HbQmw3jDosIWih9aMPQBwLfUcLanl2MrYs50ACxox8NCKggcAxlDP0YJaDvoQYL1g4GEvRQ9nGXcAYCz1HGeo5TjCuLONAAsaM/hwlIIHAGJQz3GEWg76EmA9YfDhDEUPexlzACAW9Rx7qOU4y5jzngALOlkGIIMQ7yh4ACAmE0reWep9tRz0J8B6wABEK1/f3wofXjLeAADktNRxajlaMXd8TYAFFzAQ8YjwCgDiU8fxiDoOrifAumMgohfFDwBATuo41swZ6cl485wACy5kMGKh8AGAXNRx3G5qOBhJgLViMOIKih+MNQCQkzpubmo4rmKseUyABQMYkOal8AGA3NRxc1LDwXgCrP9nQOJqip/5GGcAoAZ13FzUcIxgnPlLgAUDGZTmofABgFrUcXNQw0EcH1/f7kaDEqMtxY9+WJMxBgDq8pyvSX1OFMaYX1ZgQQBf398+xSvKAwcAalPD1bPUb2o4iGX6AMvkkkgUQLUYXwAAclG/EY054q/pAyyIxgBVg+IHAOahfqtB/QaxTR1gGaCIShGUm7EFAOajfstN/UZkxpcfUwdYEJlBKifFDwDMS/2Wk/oNcpg2wDJIkYEiCAAgF/VbLuaFZGFsmTjAgiwMVHkogACA2039loXaDXKZMsAyUJGNIig+4woAsKZ+i03tRkazjytTBliQ0TJYzTxgRaUAAgAemX2yGdFST6vdIJ+Pr++57lyDFRXox3G4FgDAO+qFGFwHqpi1L1uBBQn5NC+GWR8cAMA+arfx1G2Q31QBlkGLShRCYxlPAIA91G7jqNuoZtbxZKoAC6qZdeAaTREEAJCDug3qEGBBckKsaymCAICj1G3XUrdBLdMEWAYvKlMMXcM4AgCcpW67hrqN6mYcS6YJsKC6GQewKymCAIBW1G19qdugpikCLAMYs1AM9WEMAQBaU7f1oW5jJrONI1MEWDCTZRCbaSADAMhotslnT0v9K7yCuj6+vmvf4QYxZqb/n6cNAYDe1BvnaD9mN8s9UHYFlhUo4FO9s2Z5EAAAY6nZjlOvwY8ZMpCyAdbaDBcSnlEQHaMYAgCupGbbT73G7GbLOkq+QrgMZPcD2vrCGuiYjQf8dtoKABhFHbKNdmJWz3KNZzlIJf+NPoArCbOYWfXBrBVtBAAQm3qN2cgvfpRdgXW7bb+w90vuZu4Q1OeB/5y2AQAiUJM8p22YwdGMYm8Wkk25FVjrZXNb3V9c6SaVWYn1mDYBAKJQrz2mTaisVQ5RefwotwKrdeIozKKqqoPaEdoCAIhIjfJLW1BRj7yh8iqsciuwWrNvFlWtVyrO3J8VQwBAVJVXUmylXqUaucJxpVZgXTm46XRUMmthNOt5AwC5zFqzzHre1HN1flA1+LUC6yArs6hkxk/3ZjtfACAvtRrkIydoT4DVgDCLCmYsjAAAspipVpvlPKlHHtBXmVcIIy6R03nJaIaCYYZzBABqql7HVD8/6ok674+YkZxlBVZHVmaRUfVP9yqfGwBQX+Varep5Uct6bn+7md9fqdQKrCwdR4cng0z31FYVzwkAmFO1uqba+VBL1gUp1e6rEiuw7gOh6O47UNabgdqqfbpX6VwAACpRpxGReXo8JQKs7LxqSFRVQqwK5wAAsKZOg/Yqzscr3WMlXiGsdEHWKt485JR5A8Cq4wMAwO2Wt9bJXF9SS/V5d9Yx4pH0K7CyvT64h5VZRLH0uWyDX7bjBQDYK+NKrGzHSz3m1zmlX4E14+DnZmOkLPdcluMEAGghS+2T5TipZ+Z5dJX7Lv0KrBlZmcVIGT7li358AACtqdHgX/dva+l7+aUOsCq/PriVMIsRIhdIUY8LAKA3NRqzMyeuLfUrhAbB59y4XCHaPRjteAAARohWE0U7Hmox992mwn2YegUWzz1bmXX/Mzgj8qd8AACzilSjRTkOahFazSntCiwD4XFudlqLcD9GOAYAgEhG10ej/31qMY89Z2m/zG1nBdaE7JtFa6M/5VMcAQDEoj6jBfPVdpY5W2YCrMkJs2hlPSBe2X8URwAAj434kLHCKg/GMi/lmZSvEJqw9mfQ4Iyr7lFjAQDAe2ozojP/vEb2gNkKLB6yMoszrvi0T4EEALCN2oxofNHYGNlfI0y3Ait7YpidMIs9ehUyCiQAgP3UZoxkLhlD5kwl5QqsjA1dhZVZ7NHj0z4FEgDAMWozrmbOSEspAyxiEGaxRctCSYEEAHCO2ozezA1jy/waYapXCDMvdZuJ95l55GyBo0ACAGhHbUZLQqtcsmYr6VZgZWvgGd1fI4MZt9u5T/sUSAAAbanNOMs8j6ulC7DIx6uGLI4USgokAIA+1GbsZT5XQ9bXCNMEWBkbl7+EWawHS9cdACAH9du8zNvqyhZIpwmwbjc3SzXCrHkt1/jdgJltQAUAyGbLKiw12VzsaUxUKTZxl/bPRZg1l2cFkUIJAOA6arK5mYPNKVvWkmoFFnOwMmsujz71UygBAFxLTTYfcy2ySRNguaHmJMyaw7pgUigBAIyhJqvPnIrMwr9CmG1JG9fwXnZNCiUAgPHUZLUIrXglU+aSZgUWrN3fXAblGlw7AIDx1GT5mR9RUYoAyw3HO141BAAAZmYeRHWhA6z718RgC2EWAAAwA/MdWsiy713oAAvOEmYBAABV2AuY1pbwKoPwAZYbklaEWQAAQDbmLvAjbICVJQEkJ2EWAAAQlTkKV8vwGmHYAAuuIswCAABGMxdhlCyvEYYOsNy0XE2YBQAAXMWcA7YLGWBlSP6o71mYdf8zAACArYRWRBX9NcKQARZEc38De+gAAABbmT8QXYbXCMMGWG5qIvOqIQAA8Ip5ArQVLsCKnvjBPWEWAABg2xEqiPwaYbgACzITZgEAwDzU/FQS/TVCARZ0IswCAIB61PYwRqgAaxkIDAJUI8wCAIC81PDMJOprhKECLJiBMAsAAOJTq9NCtoU6kV8jFGDBQMIsAACIQ01OC/f9KGoglE2YACtbKvlIhXNgnGdh1v3PAACAdoRWnPVu/hb1lbxXIh5zmACrivt0NdLFJo/7fqNPAQBAGz4spoXKc7Soq8YEWI2sk0kraWjNq4YAAHCcGppWvHk1TogAq3IHsJKG1oRZAADwnlqZls7mFhFfyXsn2jGHCLBm8ih8iNIZyEeYBQAAv9TE9BApxLlKxNcIBVgNHO3My38z481Ae8IsAABmpPalJ/P1OIYHWFYh/ZtsztwOtCPMAgCgMjUuGUV7JW+LSMc8PMDih9VY9CLMAgCgArUsV5t9fh7tNUIB1kmtO3SkdJN6hFkAAGSiZgUWQwMsr83BOM/CrPufAQDAVdSlRNFrYUnGRStRjtkKLODPQOSTLgAArqL2pIVXr7rpVzUIsE6QyFKVVw0BAOhJjUkLW/uRt7+Oi7QP1vAASwdqS+pMa8IsAABaUEvSyt5A6siXpvVcWGLRyjHDAqwoCV4VW25gDwzOehRm6UsAALyibqSVs31JHzwuQug2fAVWVsuN0+MC7vk799zAwgdairSUFACA2Mw7OGtEeNIrtMk2j4oy9xsaYGUfxNbLEO//bMRxHPlvRieo5KXvAACwRYSVG+Q2sv+06r+PcgP3xT5DAqwIyV1Lz/YIuv/ZO3tXRbXo7B4mAAAA0NaZbCCq0fmBVwgPeHXB7v98z7ciZE+UAQAA4JURCzfOWr9CN+u+0xFeIxwWYFW7mM+8Wp317PcguggPEQAA8vCh+dzug53RQcgRj7YQevY7e/5O98V2VmBdqPV7ri07uxsHAACAVp6tRtr7pWXR5qi+HG2cywOsjEnrmn2nAAAA4LFZQp0Z5/RLljHq3D8v/xdv9TvyFq2WTbZcftni71o68/I/6plxoAYA4Lysr47x3noO+PX9/XS+sHcuEbXPtJwTRT3HiLxCOFDElVhHjuXVRnWVN7EDAACYlbkeV7s0wMqeKkYLmxYjg7B3/673gwEAAGo4E1odnbNGW/gR6VhGGPka4eWvEM58oas5svzT8sjcZh+sAQA4x3wgr/XrgVfPCar3m+rn18qQPbD4FXEvrC0EGQAAAPM4M/9r+WVoI4Me8+CxBFgbZeioEW7oLaTLAAAA7LV+qyfD3LeqUdnIZXtgZQiAKljaOHp7R3uPmfdcLwAAWjAXmEuPa/1or+Wzf89oGe+Lq4/XtxAO1uuCr1c59fr7AQAAYKQrX23sGTJZTfaeAGuDbCnoYr0aa/3/AQAAoLfoc+nRq57OfKvjaCO2BrokwKqQJPbo1FfdKFleKyQufQcAgJZGBwew2NsXz7ztdJ+N6P/7XLYCK/OFuV/JtP6zTDwkAAAAuEKmueeREOt22/a2U/Yc4Z0rr7NXCHd4tVHckeS1YucFAABgDPPMaz1a7PLsdyq6+jXC7gFWhdcHH7nvhHtS1ZGDymyrsGY61160IQAAPcw2N7lClDaNcAx7nWm7bOealRVYjez5Gs/RnTvKoNZT1eAUAAAAZnRJgFU5KHlktvPdq+e3Iq7/7uohHQAAQDRZ52FZj3u0K+feXQMsq2C417JjP+pfBpy2DOIAAPTkg+f2tClVeYUwgR6Dz4hBrfW/Z0AGAADgLIFfDp+jD4D3rt7Zv4fsYRkAAACvZZuHfX58pDvmmXULsHruc8R5V96kBoScXDcAAK5Q4QP7aLTpe8t8x5znvKv6m1cIk1h3iCw3WLbjBQAA4JgRH4Af+TfNU/MSYCWy3GBnb7jeA4sBAQAAgL32zlW3LvRYrw4yT82rS4C1dDpLFvtoFWS1FuV4vPoGAADMLuO3ER455vv58avfoa/e/a3bCqxsN0pGj27ULalz6+sSJbiiHfcvAABXyhi2EIu+M9YVi5i8QljA+ka9MnUWXAEAANCKEJNXmgdYXh8c64qbPXJwZcADAAD4YWUbV+vZ36zAYrPIwRXteMABADCCsGVurj3vfHb5S3W8Uj4/Pv53TV1XAAAA7nkTi955QdMAS3BVS7bgSv8DAAD4V4ZgyVyull79rfkKrOg3Bu9lC65ox4MDAICRMoQtPOf60VPTPbCWie8SgKz/jDzW1/H+zwAAAOCZdYj1bh4pN6jhPrRMs4n7/QoOIUheriMAAEB+V2+Qf78owtyynlfXsVdf6/4thDpqDY+uY6Rr6NW387QhAAAR+DbCOrzdU8vo69g9wFoTZtVgEAIAAKinV3BovphXpHn/pQHWmjArP9cQAAAgh1cr2yK+ZcM4Uef3wwKsNUFIfiOvoeXF52lDAAAi8RrhdbQzt1uOLKZpgNWi4z8LQu5/Rlz319B1AwAAiMd8bV4985ZeAXSIFVjPPNrJ/tnPiMl1AgAAiMHKtrllz1RCB1j3vGrIPYPvedoQAICIhC19ads5VMpOUgVYa8IsAAAAgH9VzUiaBVgj01thFgAAALxnZVtN0bKQHv0s7QqsZ4RZsJ0HFwAAkQlb4LnZMo9yAdaaMKs2DzIAAID9zKPymjnbKB1grQmz6nHtAAAAqE6G8WOaAGtNmAVWsAEAkIPXCJmRrOKvJgFW5sFEmAUAAACMVi2TaB0+T7kC6xlhFgAAAHAV2cN2AqwnhFlUlnnVJAAA8/EaIZXIGI4RYG0gzAIAAACOkiWcJ8DaSZgFAAAAvCMzaOvj6/tcK1rG+WPdMW83nZO43LMAAGSlliUyucBjre5bK7Aaub8YklYAAACozdz/OgKsTrxqCAAAAPWY448hwLqAMIsoLLkGACAz30bIKOby4wmwLibMAgAAgPjM2WMRYA0kzAIAAIA4zM3jOvUthJZu9uGGoQf3KwAAVahtackcvL8W96wVWAFZmQUAAAD9mGvnI8AKTpgFAAAA55lT5ybASkSYxVGWWAMAUIlvI2Qrc+c6BFhJCbMAAADgL3Pkmg4HWNLuOIRZAAAAzMxcOLYWqyatwCpGmMU9YTMAABV5jRBz3rkIsAoTZgEAAFCJue28BFiTeBZm3f8MAAAAojB/ZSHAmtD9DS/BrsuSagAAKvMaYU3mqDwiwMKrhgAAAAxlLso7hwIsCXddwiwAAACuYM45l7MrJq3A4ilhVm6CZgAAZuA1wlzMLTlKgMUmwiwAAACOMIekBQEWuwmzAAAAeMVckdYEWJwizIrJEmoAAGbiNcIYzAnpSYBFM8IsAACAuZj7cRUBFl0IswAAAGoyx2OE3QGWZZnsJcwCAADIzVyOFs687msFFpcSZvUnZAYAYEb2wWrPnI1IBFgMI8wCAACIxdyMqARYhCDMAgAAGMMcjAwEWIQjzDrOkmkAAGbmNcLtzLXIRoBFaM/CrPufAQAA8Jz5FNkJsEjjfoD1iQEAAMBz5kxU8vH1vb0XW4pJVAZm9ycAACxmro3NjcjgyD1qBRYl2DcLAACYlTkQMxBgUY4wCwAAqM5ch9kIsChtljBr5iXSAABwr+q3EVae08A7AiymMUuYBQAA1GHuAj8EWExJmAUAAERljgJ/CbCYXvYwq+LSaAAAOCvba4QZ5yJwJQEWrGQPswAAgDzMOWC7zQFWpuQaWhBmAQAArZlbwLEVklZgwQZRwyzBMgAAPBflNcJIcwjISoAFO0UNswAAgDjMFaAtARacIMwCAAAW5gTQjwALGnkWZt3/rJUIS6EBACC6nq8RXlH3Az8EWNDB/YPLJzEAAFCD2h7GEGDBBbxqCAAAeanhYTwBFlysRZjl9UEAANjuyGuEQiuIZVOAZbIMfViZBQAAcajJ4Tp7g2UrsCAIYRYAAFxP7Q05CLAgoFdhlhWRAACw37qWFlpBPgIsCO5ZmAUAAOznA2HISYAFiXjQAgDAceppyOtz9AEAAAAAwCsCLAAAAABCE2ABAAAAEJoACwAAAIDQBFgAAAAAhPY2wPIVowAAAAC09vX9ffv8+Nj0u1ZgAQAAABCaAAsAAACA0ARYAAAAAIQmwAIAAAAgNAEWAAAAAKEJsAAAAAAITYAFAAAAQGgCLAAAAABCE2ABAAAAEJoACwAAAIDQBFgAAAAAhPYywPr8+Lh9fX9fdSwAAAAATOTr+/v2+fHx9veswAIAAAAgNAEWAAAAAKEJsAAAAAAITYAFAAAAQGgCLAAAAABCE2ABAAAAEJoACwAAAIDQBFgAAAAAhCbAAgAAACA0ARYAAAAAoQmwAAAAAAhNgAUAAABAaAIsAAAAAEITYAEAAAAQmgALAAAAgNAEWAAAAACEJsACAAAAILSnAdbnx8ft6/v7ymMBAAAAYDJf39+3z4+Pl79jBRYAAAAAoQmwAAAAAAhNgAUAAABAaAIsAAAAAEITYAEAAAAQmgALAAAAgND+G30AwK9HXxv69f094EgAAGAOanDIQYAFF3j0UHzk/kG59b8DAACOO1qHC7rgOgIsOGnLw82DDQAA8thav5sLwHUEWPCET10AAIBXtswFzCugDQEWU/JJCQAAcAWruaANARalVPt04+v7+/b58ZHmeAEAIJNItbbVXPCaAIs0fCIBAADMzGouZibAYjifIgAAALRjNRcVCbDoSvIPAAAQj9VcZCPA4hBpPQAAQH1WcxGFAIs/JOwAAABsZTUXVxBgTUQqDgAAwChWc3GGAKsISTYAAADZWc3FMwKs4KTPAAAA8C+rueYjwBpIYswWX9/ft8+PD30BAAAaUmPXZzVXLQKsDqS8AAAAkIPVXDkIsHaSzAIAAMBcrOYaT4D1/6SpAAAAwBlWc/UzRYAlAQUAAAAisJrrmNQBltQSAAAAqMhqrn+FDbAkjQAAAADPzbSa6/IAa6Z0EAAAAGC0Cqu5mgZYFRI9AAAAgNlEX821KcCKnsIBAAAA0N+o1VwfX9///vajf0QwBeN9fny4FwEAoAG1NcSwJ4N6uALr6/vbDQ0AAABAN+vc6d2qrc/eBwMAAAAAZwiwAAAAAAhNgAUAAABAaH8CrGX/KwAAAAC4yqu92K3AAgAAACA0ARYAAAAAoQmwAAAAAAhNgAVJ2J8OAADO+/z4eLnPDhCTAAsAAACA0ARYAAAAAIQmwAIAAAAgNAEWAAAAAKEJsAAAAAAI7WGA5RsZAAAAALjC58fH+9+54DgAAAAA4DABFgAAAAChvQywtizhAq7z9f3tvgQAgIM+Pz5smQNBvbs3rcACAAAAIDQBFgAAAAChCbAAAAAACE2ABQAAAEBoAiwAAAAAQnsaYPlmBgAAAAB6+vz42PZ7nY8DAAAAAE4RYAEAAAAQmgALAAAAgNAEWJDM1/f35neEAQCAH58fH/Z6hsQEWAAAAACEJsBiKCuJAAAA8jCHYxQBFsMY+AAAAIAt/ht9AMxpef9ciAUAAMDi0RzR3mXcbhsCLBvd1fIuMHKtAQAAGOXRnHTrwgfz2Xz2LG6xAmsSS2d4d0Nv/b2zx7L8/UtHNdAAAADwyNb54rMQxHyzBgHWBPYERMvv9QiyrgjHAAAA6CP64oP7Y4t+vOzzMsCyR9F1or3nuw6yzh6H4AoAAICrtJqDbslDzHPP25o7WIE1wNawqsVNFyFxHv3vV+TVSwAA2E7tPI+z13o9X9/y91iwcR0B1oX2duyer/NtJSgBAAAggzNz16Pz7gjz9lkIsG79N3o725GPvs4neAIAAKC6s3PuFnPnltvwLH/P1n9zFtMEWK8u/rOLvnfp4LO/o1WnshoKAAAAfkWbI5+Ztx99ffHVsVRSNsC6v5BHLtz6v4lyU0Q4BgAAABgtyjz93tHw6ujri8/+vmrKBli32/iwJ+rNFI2VZQAAAGzVcr8dBVAQAAAgAElEQVSpCHPRCMeQweemXyqY3O21hCyZVLmZAQAA4Hb7naOap+a3e5/vjscCAAAA0ETFBRYVz6mXsgFWjxVTGVdhneFGAgAAYLTPjw/zU+oGWBHMFnhxLf0LAADeE3y0Maode78yWHFeVbXPC7B4qGqHBwAAIAfzUtbeBlg6yzkV01wAAADo6crwyrx9nD3X2QqsCyw3Q5YbQsoNAADATLLN22f03+gDyORMsLP8d49uhkhh0ajwahksIrUFAAAA1xs5L13+/fs/YzwB1sUedf77UGvUDSJAAgAAYHbrefEyX++9iby5+HubA6zZG7Tn+d//vdJeAAAAZhQte7hflRXp2DJbrvOeVzZLr8BqkWSO6KRXpr3rf8eNCAAAwCiR56U9g6x1kBP1/CMoHWDtFXF/qvVN0utYIg8SAAAA1JdlXtprjm6l13vTBVivlqe9259qZAfqlchmGSQAAAAgil5z9CxfADfCFAHWmRDq/nW+0SFWhOMgDhv+AQDAc2rlNl6148wrhnrM0V+157MFOZFyi56mCLBaXbxqYUGlcwEAAOA6MwdX985mBVsX3bwLEav73PJLOuSvvbvkRz2GiOFVhLYFAADgtWU+GW1OebuNC3OOzmfXbXm0Pc/+96PszSWmWIHFvyKGVwAAAMRm1RUjbVqBxb+sFAIAAGAmvVddVXjTaO85jD7ebHYFWBlDG2HTv6LfIJGPDQAAYFbmarRyNJewAmsi0cMrAAAA4rlqHnlmAcre+a6FLvkIsBI6EkQJrwAAAIhuCbF6v4rX422tPcdhjr6fTdyTubqTP7qh3WQAAAD0ssw57+ej93PRs5vKLyGWOW4OAqwJPLohtybNbuT4DLoAAPCXGjm/d/PYFte31XxKf+tvc4BlM/RfR1/hu93O3WBn/t0eNzoAAABc5YpvQDy0ufiJVxhnnZsfOXcrsC7yaAnknndj9/z+o38XAAAAeGzra4uLI3P73qoHYgKsnc52iPV/6zU+AAAAiGPr9juRXl+cxRQBVst3WlvSSQEAACCu3vP2s68vzmSKAOssnQkAAADo4f71RdnDY7sDrIrL296trKp2vgAAAEAsz/bhevZ7GS2Z0pE33KZagdXz3VUAAACAs95lFK23N8pimgBLSAUAAABkN2u+8bnnl2dtJIju6BJMAACoqOLWN1DF0ftzV4AFAAAAAFcTYAEAAAAQmgALAAAAgNAEWAAAAACEJsACAAAAILRDAZZvOwMAAABgq7PfDro7wPJVpAAAAADsdSbE8gohAAAAAKEJsAAAAAAITYAFRXx9f9ufDgCA6Z3dZweISYAFAAAAQGgCLAAAAABCE2ABAAAAENp/R/9D7xXDePa8AgCAv+7rZHNXiOHMvXgowLJZNPS19f7yIAYAgH89qpHV1zBWiwzp8Aos4JgtN64HJwAAtLO1vlarQ1wCLGjEpzoAAJDbllpd3Q9jCLBgA5/EAAAAt5vVXDCKAIup+fQEAADowWouaOtUgOWbCInMJx4AAEBkVnMxk7N91Aos0vEpBQAAMBOruUCARTA+WQAAANjPai6qE2BxCZ8GAAAAjGc1F1kJsDhNgg8AAFCH1VxE9PH1fbw3LZ1Vh6xJ6g4AAMAZ5pW0+gJAK7AmJSkHAACgN6u5aEWAVYx0GwAAgGzszcU7AqxEJNIAAADMymquuQmwApAiAwDwf+3da5PbuI4AUHdq//9PTu+HXE8Ut2TrQYoAeE7V1t7JdHokig8IBmkA2lDNVZMEVmcyvwAAABCLaq58Liewfn9/NztRPhPZWgAAAKhNNdc1e9tmDxVYK2RYAQAAgD1Uc91jqgSWrCgAAAAwgmquay4lsJ7bByOQyQQAAAAyq1jN1eo6wldgyT4CAAAA/DVjNVeTBNbZg9wzZQwBAAAAshhdzdV6x16XCqxqWT4AAACAirJUczVJYD1v5Pn/JaYAAAAAamhZzXXW1+/vNtmmM1sIAQAAAKindZ7oV7PfBAAAAAAdNEtgPQ9yBwAAAGBePXbpqcACAAAAIDQJLAAAAABCk8ACAAAAILSmCSznYAEAAADMq8f5V4+HCiwAAAAAgpPAAgAAACA0CSwAAAAAQpPAAgAAACC05gksB7kDAAAAzKfXAe6Phwos4H8kngEAiER8CixJYMHkfn19/ZclFyQAABDBMj4VowKPx+Pxf6MvABjjGQj0Ku8EAICrnrGq2BX4+v3dZwboue8ROO/T4m/sAgAw0rt4VCIL4ur9LqkCCyYiOQUAQGbLiixxLczFGVgwgeU5V584CwsAgFGOxqziVpiHCiwoTIk1AABVOR8L5tLtDKzHQ1knjHR1/Bm/AADcSfwKed0x/mwhhGKObBd8x1ZCAADu0jJ+FcNCTbYQQhFKpwEAmJ1thVCXBBYk13Nxfn6KZeEHAKCXHvGmRBbU03ULoS1I0NdzsbcgAwDAT89Y2Xsp9HNX0YMzsCChVudc7WHBBwCgl7tjWnEt5GULISSiBBoAAM6xrRByk8CCBEYvss7CAgCgtVHx5TKRJb6FPL5+f/cfsSYGOC/S+Il0LQAA5BUlrhz9QTFkd+dYVoEFQVlMAQCgL9sKIQ8JLAgm8uJpKyEAAFdFjCclsiA+CSwIwmIJAABjOR8L4rrlDKzHwwQA72QbH9muFwCAGDLFkT5ghvfuHs8qsGAgiyIAAMRkWyHEIoEFA2RfBJ2FBQDAUVnjR4ksiOHX6AuA2TwX7uwL3zOJBQAAn2RNXi09Y3gxMIxxWwLLQGd2v76+SizcAAAws+e7rfdbZjbi3dYWQuiscqmxrYQAAHxSMV60rRDuJ4EFnVjMAACgtmUiS9wPfTkDCzqocs7VHrYHAwCwZZbEjm2F0N+tFVi2G1GdqisAAJiTbYXMYlRexxZCaGD2RUpyGgCAV7PGhxJZ0IcEFlxgUfpLEgsAgCdxofOxoLXbz8ByXg5VzHTOFQAAcI7zsahkZEJWBRYcpOpqmyosAADEgz/ZVgjXSWDBThYbAADgCtsK4bzbtxBCRrYL7mebMADAvCRm9rGtEI4bUoFlmxFZqLoCAAB6sK2QbEbncWwhhBUWkWskqQEA5iP+O0ciC/aRwIIFi0Y7klgAAPMQ913nfCx4b9gZWM7JIRrnXAEAAKM5H4uIIiRWVWAxPVVX/ajCAgCoT7zXnm2F8JMEFtOyGAAAAJFJZMFfElhMx+R/L1VYAAB1ifPu4XwsGHgG1uPhHCzu55wrAAAgK+djMUKUxKkKLKag6mosVVgAAPWI78awrZBZSWBRmkk9DkksAIA6xHXj2VbIbIYnsLzU0oPEFQAAMIPl0Tzef2gtUr5meAILWos0wPiXhDUAQH7iuXhsK2QGEliUYbIGAABmJpFFZV+/v2P0aFl8zjI552O8AwDkJI7LxfPiimj9RwUWqUUbUAAAAFE4H4tKJLBIySScm7OwAADyEb/lZFshVYTZQvh4mBD5zKRbizEPAJCDuK0Oz5I9IvYTFVikIHEFAABwnW2FZCWBRXgRM7+0YSshAEB84rV6bCsko1AJLC+zLJlMAQAA+pHIYk3UvEyoBBY8HibP2UhcAwDEJU6bwzKR5XkTlQQWYUhcAQAAjON8LCIL9S2ET7K+8/HM0QcAAGIRn81NImtOkce9CiyGMinyZCshAEAc4jKcj0U0ElgMYRIEAACIz/lYRBFyC+HjYXBU5tnyjv4BADCWeIwtChFqiz72VWBxG5MdAABAXrYVMpIEFt2Z3DjCWVgAAOOIw9jDtkJGCJvA8hKbn8QVAABAXc/39uf/Jq8M+ZewCSxyy9D5iUsCGwDgfuIvzrCtkLtIYNGUSYtWJLEAAO4j7uIqiSx6C53A8gKbh0kKAAAA52Plk+VZhU5gEZ/EFT1JYgMA9CfeogfnY9GaBBanWegAAADYYlshLX39/o7fgyRKYjH5cDdzAABAH+Is7qS/xZPpmajAYjeJKwAAAM6yrZArJLDYJVNWlnqchQUA0J74ihFsK+SsFFsIHw+T6ygmFSIxDwAAtCGuIgrvnONkmwdUYLHKJAIAAEBvy4os75+8k6YC6/HQoe8gcUV05gEAgGvEU0TlffQ+GecBFVj8J2MHBgAAoAbnY/HOr9EXwHi/vr4kr0hj+c0lAAAcI+4ng9/f3+J+fkhVgeWbyNqS1QYAACCqZRLLe2s7WfMqqRJYtGECIDvJbACA48RPZGRbIU+2EE7muWgZ9H0pde1PSTEAwH6SV2S33FboPWBO6RJYXlrPcc7V/fRTAACAtpyPdU3mvIAthMUps6QyWwkBAD4TL1GR87Hmk64C6/FQhbXHsuLKYB5DPwUAgDl5D7iHbYXHZE9mq8AqKHunzE7730sVFgDANnESM3DQ+xxSVmCxzjlX8ajCAgCAuXgnG8f5WLWlTWDplH/ZLsjszAcAAD9JpDAr2wp/qjAfpE1g8YfEVSxrk4Lkyj20MwDAXxVeVjPS7nE4H6ue1AmsmV9YbRfMZea+CgAAM/B+FpNthXX6pkPck3EoXVxVJoXMHOgOACAuhTXLJJbxkZMEVhIGWnyfno3kCgAA1CTOz8G3FeaWegvh4zHH1iznXMF+M8wJAABbJFLgs5nOx6o0J6RPYFXmnKt6JFcAAKAW72x5OR8rlxIJrGodbpm4MhHCcdXmBACAPSRS7qfNa6hajVWtfzoDKxD7cOfgLKx7aGcAYCbinjl4Z+zH+VjxSWAFYcG5x2tGfVSbS64AAEBuI+J5SZb+lm2sfWMpk8DKmhAw8dxjq521f21Z5wUAgCPEO/ORZOlveSxJxjau2DfKJLCyyTwQMvnUziM/wZBcAQCAnKLE8dmTLNGpeIulVAIrS0IgwzVWcKSdfYJRV5Z5AQDgDHEOkiz9ZWvjqvNCiW8hzGL57YL0dbad7/72Ot+WBwAAuUR9p3t+i733i3608VgSWDdYJq4iTnT8y4RUj2cKAFQUNZFSWYY2f8a+4t9+tPEYpbYQPh6xtgtlKS+sJsrz3ytSn63IOAQAqnL+EVsckdJf1G2FlZ95uQRWFJU7De1JYrUXbSEBAOgh6kt0RRnjdUnO/ozB+5RMYI1MBui0Y2VcVGjLGAQAZuQlmi36xj0iVL1Vfx8umcAawWTAVaqwrtN+AMDsIrxEV1SpPSvdS0Sq3vopm8C6KxmgY8J4xiEAwL+8RLeTNeHzesB4xnvIakTVW9Z+ekTZBNYdZugg3EsV1jGCMgCAbbaOzUXCKh4VkW1JYJ1gAYCxjEEAgP0kss6LnHiQsMpDRWQbpRNYratZdLj4KlQwZb72O2R/vgAAo6gGueY1YbR01xaxu/+btNMzkTzLmC6dwGpF4ioXz6km4xAAoA3VIPs822hkWy2TVp5VDSoiz/v6/V2/ta5kI2fJZEYS4ZMFzz0OEzsAQD9irZg8l3lcffec6d1VBdYGE8a93n2ycPezmGkCiMwYBADoz7bCWCLEwGtbJfWNflRE7jdFBdbjsX9C1nHuFbG9Ld7jeQYAAPeLGJvPIkLbv7sGWxnvcbQfzPbepAJrYbaHP1KECZp49AsAgHGczTNGhPfQT9ew/Hf6Rz8qIt+bJoH17tvpDMD7aGvW6BcAAHFIZN0nY6JC/+hvz7bCjH3nqmkSWGsMuHtlGGAZrrESYxAAIC7VIHM4+3z1j74kCn+aMoGlA9zPpMYrfQIAIAeHTPcRIR5ucQ3vdjtxnUTWX1MlsAysMbQ5SyZeAIB8vETzjnft/ozByRJYTwYWa/SLvmaeaAEAqvASDeM831mX3wo5k1+jL+BuJth7SQrx6+vrv36gLwAA1PCM7WZ9keYn/eEeM79jT5fAejKwaOWZoOEniSsAgNqeSQvxMPQ1c+LqacothDLDtKBsepu2AQCYh22FebU+u8pZWH3N3rZTJrCeZn/4d8gygR25RgvzNm0DADAviSzoY/azr56m3UJoMuUMW+LWOecKAIAn52PtE6WNWl+H94E+MhSG9DZ1BdbjoRPc4WoV1rvJ9K5n51OkbcYQAABrlokR8eK6q23UKhbPsnNmRqqv/vr6/T13DzWh3mfvhPg6MN/9nRbP79116R/btA0AAHuJHT872kY9Ek6SWLEsk1eeiwosdljL9J4ZPGsD7+rv7rnP3iSxTvABAMBRzsf6bG8baUNmNX0F1uNhAni1pwLqapnru999xZmk01ZSTX/4l3YBAKAVHxZ/thZ/39FuI55Nz3fErFRf/aQCi/8cSVAsPx04Oph6Dr4rA1yCZptJEwCAlpyP9dlrRdbyz3r/d++K/7eSdMtrgScVWP8z8+QZ4dDAlo5ck8nxvZnHxRURxwUA0J8Y4BwxZ0w9+/PeZz5r31B9tU4F1sJsHaTFZBCxzY5eU6Rrj2LWhaKF128J0YYAUN9y3Y8WG2dwZXcH+Zx5V5sptjYOtklg/c9MX0s50+D/RBv8ZMJsQyAGAHOw1rfjQ8BYIiVkZ4ytZ7rXvX6NvoBoKieyfn19/TcIDAReLfsH56y1X+U5BQBmZ+1v7/mu8oxNOa9F+7Xuz1ffN6r3De9j76nAWqi82Mw0EGa61xZ8ytXGu37n00QAqOXTuh6pciWrGbeORdWqP7caEzP0DfPHOhVYKyomsireE9eoyGtnzwKz/DQRAMhrb/xk3W9DDHVey3aL+AyqVetJWn0mgfUi4sCE1iSuxjHHAEBeXjDHqZSooK1qSU7zzDYJrA2VBsBTxXt6ZbC/55yr9s60pwAMAHI5G0PNEH/fqVrFTTaR+3P2d5zs138XZ2CtWO7x1ZHei9Q+ka4lmsr7w0e60udm/CYVAMio1aHT1vt2ZjgDqRX9L77l8/Gs3lOBNZmWWfNIgyvStUTinKv4fIoIADG1rFyPXLmSWbWtY71UbyPvgvNQgbVBFdY+axPhnW3lU5dt+m1fLdvXJy4AEIs1ORff+PxZi/da1Yjtqb46RgJrQq0mr+fvOvLvWrFAbdM2/fVaXCzqADCedT4n2wo/i9AHW1/D6PvhXl+/vz3tdypXYZ25pyMLQuvfv6z2qvYsWrBY3+OOucCzBID73bX+VnyviEg8te1s25ztu6+7dlq9X2cfS6qvjlOBxS5nJrkzE9PrJydr/45/WZzrsZABwL2sufWIp7adqVa7krx6/XvP/65nw1EqsHaYuQrranKkYptFon3vNaK9PWMA6Mv6Xp8PfN97t9Pl7C6YvW1+dzVYFKqvzlGBdUDVJNaWFvc6W5vdxSJ8v1H92KGkANDHyPVVjHwv52O9t2yPte1+Rx3p2zM+G2P/PAmsHSovMGv3NtPkkY1nM8bo8e/TGQBoK8KaWvkdI6oZkyVHjWqTI8+m0ripdC93kMA6qPJCYyKPy7Ph8VCNBQBXWUd5PHw42NPVNv30bLI/s+zXP9qv0ReQxfLFsZplUq7nVwZzTs9nw2fRFplnXzCmAOCYiDGVNX2sZ/t7BvHM8GyivWdkoALrhIpVWBXvKTufEI4XeUwYswCwX+Q105o+lm2Fca19Q33m52OcXyeBdYDFhTtYPNnLlkIAeC/LOuk9YzzbCuNaS2Rlp5+dI4F1UsVFptc9VWunXrIEWLPI0m8FWwCwztrIGT4gjCn7eM5+/VE4A+ug1wmtUhaYcSKeyTCzjAvMDOcEAMAez/Uw61rOeMszRz0TrnqdjzLOT1GowOIfrauwDM73fLoTT+Y+qxoLgNllXwMr7vLIzPlYMRgTPKnAOkEV1j4mmm3LTwa1Ea2ZlwCYkdiTXnwL9H6t2yn7uFZ91ZYKLH5o8cmPgbnOpzexVeq3zm8AYBbV1jtVWHGJr2Csr9/fRt5Zy4Wl4iJz5p5M6Nsq9pFKKj+fyvcGwNwqr3GV760C7z3vtei/2ceA6qv2bCG8wFbCv2yJ25b1IFHqmH1+AqCm6vGV9Ts2B72/N3vbSF71YQshm/aWLxuM63wqk8cMfVjJOwBVWM+IpPKOnKuuHIKvPVljC2EDlbcSvrsfwcM67ZJLtTG7x4z3DEANM65hM95zVt4D3tvbPtn7vOqrflRg8dZaFZaJeZvJKZdZn5dqLACymXndcqh7HlcqjmagfbhKAquB5aJSeYEx0WzTNmRTtWoUgHqsVWQjUfPeu/bJPt5VX/UlgcVHlZNyV1mU8tKn/zC+AYjMGvWH9TonHxi+J9HHUc7AaqjyWVj8yySbm/H5kz4NQCTWpXVimLz06c+y92/VV/2pwOrEpyR1ea5UJPkOQBTWom3eMfJSbfRZ5jYxLu/xa/QFVLI8GJl6fn19mZgK8AzfM48BMJJ1muqW5yaLueoyl/VhC2EHthLW4lOSOozH/fR7AO5k3TlGTFOHZ5mfrYP3sYUQNgikarGQHCMJD8BdrDXH2UpYx7L63fOE91RgdaIKKzfPrB7P9DxBFQA9WF+uE9/UYkzko/rqXiqwYMGiUZOF5BrJeABas6bAT2IueE8FVkeqsPKQuKrL2GtLewJwlbWkLe1Zk/eT+FRf3U8F1k3sU4/JwlCbMdeecxoAOMv60Yf3jJqWhRDLfyYGY24MCayOLCaxeTZwjspSAI6yZsA5Elk5mOPuYQvhDWwljMXkPwdj7R7aGYBPrBX30M5z8JzHs3VwHBVYTEPiah4WkfvYUgjAFuvDvez+mIPYi5mpwLqJKqxxTPDzMcbG0O4APFkTxtH28/Cecz/VV2OpwKI0E8p8PPNxfCIIgHUA7uN8LGajAutGqrDuYxKfk3EVh2cBMB9zfxyexZw8975UX40ngXUzSay+JK7mZTzF45kAzMOcH49nMifvQ31IXsVgCyElmKghHlsKAeozz8flUPc52VZIZSqwBlCF1ZY2RB+IzzMCqMfcHp9nhETWdaqv4lCBRVomYx4PC0gWqrEA6jCf56EKC4UTVKICaxBVWOcJmlgyfvLxzADyMofn5LnxeHiPOkP1VSwSWANJYh1jwuWVcZOXZweQj7k7L8+OJe9V+0hexWMLISmYLHilT+RmSyFAHubr/GwlZMlB72SlAmswVVjvmVRZY6zU4nkCxGWOrsXzZI1+8ZPqq5h+jb6A2S2rEPjr19fXf5OEiQJqMw8CxOSFrR5rLmue/ULfWGcujMMWwkCU9v6hDXhH/6jJlkKAOMzHMB/bCv/yvhGXCqwAfBLyx7LqCtboH7U9Ky7NhwDjqICvz1rLO+Kxf3n/iEUFVjAzVmHJ8rPHbONiZqqxAO5n3p3LjO8cHDNrPGZcxOYQ90BmO9B9xgmR82YYE/zkuQP0Z66dl2fPHrO8tzm4PT5bCAOZqVRTeTpHWDzmNdO8CDCCNRb4ZLmtcJa4zNwYkwRWUFVf2pxzxVH6C7MFTAB3EJPxeNR956CPyudjmQ9zcAZWMFX3o89Sdgr0MdP2aoDezKUsVX3/oJ/q52MZD3FJYAW0XESyD57KExv9Ze//tFdhXgQYyRwKtLD8cHH5zxnNdhZ1ZhJYdGPwc4X+w5bqn/oB9GDe5B0fEHFWpUQW8fkWwsCyVmGZvLgqW59nHH0F4DNzJXvpK1yVrQ+pvsrFIe6BvW4ljG55GKiBD/QmyADYJ0ssyXj6Cldl+vIdyat8bCHkMhVXtGTxAACAvGwrpBdbCBOIvJUw4jWRl/7EXvoKwHHmTvbSV2gpYiJL9VVOthAmELGUd7ldEOBO5h6AcyLGlMSkr9DS84iZiH1KXJmLBFYiEQa9c67oxeLBHvoJwDUR4kly0FdoLcr5WOLJvJyBlcToBSRi2Sd1WEQAAKC+SOdjeQfJxxlYyYwY6AY2Pelf7KWvALRjTmUvfYWe7n6/jXy+NJ/ZQpjQXdVYzrkCojAXAbQ1urqfPPQVerrzfCzxZH62ECZzx+COUM7JHCwiADCOKgQgiuV7bu85ybyXly2ESfUY3BJX3MnCwV76CkA/5lj20le4S693XUn7/Gwh5PF4/B3QBjMQiSADoC/bw9hLX+Eud24rJBcVWIm1yEyrumIESQn20E8A7mPOZS99hTu1eudVfVWDM7ASew7CMwNR4opRLBwAAMAez/eGs++vkle1SGBNRuKKkSwc7KWvANzLCx576SuMcDWRRQ3OwErudSC/45wrIANBMcAYzpxhL32FUY6cj6X6qh5nYBXxblDKUhOBhYM9KvSTZUCV/V6A/SqN/QpzMffQVxjp03uu9+B6bCEsYi2zbMASheCG2WxVxxoHUMfW+FaVAnCPd9sKvQvXJIFVkMFKJJJX7FWxr7zez9qLbbV7hopmG7u23LCXvkIEzseahy2ExVhAiEafZI8q/eTKt8IuVWgLyOxq9eTMcxpz0leIRCKrLhVYxfgUhEj0RfhsbYzYegj3kUTeJq4EsjJv1SSBBXQh4GUvfeUnWw+hHwliaE+yE7iDBFZBFhAgC3PVPqq04BzJ3+vEleylrxCBPlibBFZRFhBG0vfYQz+5RpUW/MsY6EdcyV76CiPpe/VJYBVmAWGEGfrcDPfIcaP7hSotZhO5f4vBAO5lzp2DBBbQzEwLh283uWamvjKSKi2q0HfHk5RjL30F6EUCqzgLCPTxHFPG13HabJw9VVpbPwd3ilxdNTNxJXvpK9xJX5uHBNYELCDcYdY+9hxfz/8N2dh6yGiSqLmIK9sQO0Ab5qO5fP3+9rRnYXDTy4x9a+2eZ2yHo6q2UdX7epJgoKWZEqRV54aq93WXmdpvpnvlfvrXfFRgATTiU+n3tE1eqrQ4S/KzJuvdebO1m74CtCSBNRELCD3oU/+ypXCdflKPA+JZI7E5D3HlMTPHBvoKPehTc5LAmowFhJb0pXUOeGdGDoifj+eLuHIfbQRtGVPzksCakGCDFmbuQ3vvXTXWHzP3ldnZeliLZwfHWQP/8P5BK/rR3CSwADqavRprhvue4R5bsvUwB8+ljRle2me4xzN8gPWTvgJcJYE1KQsIV8zed87cu2osWKdKazzJKq4SV/5LW2zTV7hC30ECa2IWEM7QZ86brRprlvukPVVafUkQQh8+qIJ+xPeLcLsAABt8SURBVJU8HhJY05PEgvvNUI1lXqElVVrnSf5xl9ljypnv/ajZ+wrH6S88SWABu1k82qlcjVXxnohHldY6iT1GmjUxMeM9XzVrXwGukcDCAsIu+kgfxl9unl0ce6q0tn4uq+r3V8Vs8/xM91u9mhoimGU+YR8JLB6Px1zBBsfpG31V2lKorxBJta2Hma8dqrHeXef9g0/0D15JYPEfiwiMU2FLYeZrZx7vth5G7L/Rrw/WVI8pK9/b3ar3Fc7TL1jza/QFALFZPO71DOTWtgZFpp+Q1e/v7/B9N8M1wqtldXEVz/XZeGyrYl8B+pDA4h8WEJYEaWN4Wc3B+AD2El/l95zzzfvQnxiLLRJY/CDI4vGwcLCfvkJ2kfuwNZnMqvTfyHNEFVX6CtcZb7wjgcUqiwiwhyADgHcyx5S2DN4rc1+hDeONTySw2GQRmZfFAwBoJWNMubzebNeeWca+QhveP9jDtxAC/5hp8fDtXtfM1FcAmEv0byy1BgMz+vr9bebjPQvkXGZ43s8gdHmfa3/Gthn6yTuz338lGZ5lhmtkn9mfZZX7jxIzVGnPNZXvjZ88b/ayhZCPlPLOo/risTzL4vU+n3/2/Bm2Ve8nEI11mCqq9OVlzEAf2nce4kqOkMBiF4tIfdUXj71ffy0oBYB+Kq2xo+OmSm3JnKq/f9CeBBa7WSTrqr54VL+/O2lLAIijcnxe+d4QU3KOBBbACkHTTwINAFqwxrZVuT0r3xtwnAQWh1hE6qmelKh+f9xPn6oj07O0/tbgOf6lLdhLX6kn0/pLLBJYHGYRqaP64lH9/u6kLQEgLvE5WYgpuUICi1MsksxAP/9DoAFAD9bZtiq3Z+V7m4mYkqsksDjNQpKbBYQ99BMAehJPtlW5PSvf2wzElLQggcUlFpKcLCD76eMsGTvAVdaVn7QJe+krOYmfaEUCCyZjAWEvfYXKMvZvL27AHuYKoCoJLC6zSEI9GV/uAchLPNlW5fasfG8ViSlp6f9GXwA1PBcSk1NsnhF76CcAjFA9njyTdLnSFpXbs/K9VeIZ0ZoEFs1YSGKb8dm06pP6NgDco+qae/ae3iW9qrURtVQcx4wngUVTVYMOmIXxu03b1OFZMpp4aS5XnvW7v/epouv393fpvlb53rLzXOhFAovmLCbxzPw8RvfHTG2f6VphVqPnNLhDpX7e8z4+/d5lgqtKe76q1Feq8DzoySHudOFwxTgsIvojAGRj7b7uWYH1/L+q9JU4vHfQmwQWFGYR+WtEO2Rq/0zXCgAZWFsB2pLAohufhlDJ0f6cKWjNdK0AzEMsyV76ynjiSe4ggUVXFpNxLCLjZGr7TNc6knaqw7MkCjHSPtqJvfSVcayt3EUCi+4sJveziADUZV1lNvo8e+kr9/PewZ0ksLiFxeQ+FpGxMrV/pmsFACAWsSR3k8DiNpJY9PDr6ytMv8q0iGe6VgDIGEdmvOYKtPs9xJKMIIHFrSwofc2ykDyTVs/7neGeGWeWcQXcT1x0jPZiL32lL7ERo0hgcTsLSh+zLCTLpNXd9/uu72Zq/0zXCi1V6vvWUmaVre9nu174pNJaSj4SWAxhMeeoZcVVNFGva02mawUA2ol07MIdvG+0J45kNAksKKD6YmKrYBvV+wkAc8iWmIhwvctYankUQ3UR2h5oRwKLYSwobVRPSkS/v+jXBwAViSP3e41VlkcxzNCGs9xnb2JeIpDAYigLyjXVF5Lo9xf9+pYyXWsk2q0Oz5KoxEJzWFY+fdKyP3ya+45cF/OyhhKFBBbDCdzIZBnoZVnIM10rsJ/1k9llGwOftvC1ji/2/q4ZqrGq319P4kgi+b/RFwCPx99FxeS4X/X2qn5/AMB1GWPI5bUukyqj7yFjWx5R/f560F5EowKLMHwysl/1xSTD/UW/vqcMbQkAV2SOIZfnUbV0dv3P3JZ7VL+/lsSQRCSBRSgWFTLIspgLPAAAOEoMSVS2EBKO8t73qrdNj/v7lBSt2J7V+8kdtGEdniXRiX2u04btVG/L6vd3lbYhMgksQrKwrNMmxzwTV5/aTLsCWVkv4S/joZ3qbVn9/s7SJkRnCyFh2U74LwvKMc/22vvtO5W+QlpfAWBW4kc4R/xIBhJYhCYI4YwzC3CVr5AWfAAALVSIi96pfn9HiB/JQgKL8CwuFpW9nlVUs7bVzPfemrYE7ibeaUdbspe+IuYhFwksUph5cZltUTn7rI9sGQTmMdscCvwxc+z4eLj/I2ZuK2sk2UhgkcaMi4tFZR/tpA1gZjOujzAT45sexI5kJIEFpGbx1QYAsEZyl730FchBAotUZlpcZk5KLL8VcOt5z37eFQDwWfbY8Uqsk/3e7zZTe4mhyer/Rl8AHPVcXCpPutXvb4/l/a8FE7O3z5O+0p42rcOzJJsZYpwRtOt52qweY4HMJLBISSAyl7uec7Y+le16AQAiq/6OUfnemIMthKRVtczXwsIe+gmwVHVNhFayjpGr1531vkeq2mZiRyqQwCK1aguMhQUAoI9qcSP9VOsr3jGoQgKL9KosMBaWsTK1f6ZrBYBIMsaNGa+ZOMSNVCKBRQkmZa7ItLBnutaMtG8dniVZSVZADBXGorWQaiSwKCXrImNxAeCqCi9bcIeMY+XKNWe83ygyt533CyryLYSUkvGbQ7Jd71nvFv+R95+p/TNdKwBEljFmZIyMfSXb9cJeEliUk3GRqeyZuHr3PEY9r0z9JNO1AgDtiXHZQx+hMlsIKSlLuW/1BeZ5f5/u8e7n9evrK1XbZ7pWAMgiS7x4Va844hlPzSBLXxEzUp0EFmVFX2iqLzBH76/383oGWXuTasyn+piciWdJdtFjmEqytXWE632Np2ZJZEVo+3esfczAFkJKi1pqHfGaWop0f3u2MEYWqS2B+KKuexBZtnFz5Hpb3tdWTPX85+wxV2aZ+i9cIYFFedmCkpn1eFaZn7t+yx7LT4P1F4A5LKuB7pj798QkMySyIr5XRLse6EkCiyncvci/U32RqX5/EM0ymH7d2mAsAuwTMTHxybuEUcu498yxEGf+XhZR+kqUdxu4kwQW04iwmEZY7Hqqfn930pb3qtLer/ewdlZHhft8p8qzhCgvyTPJ2uaviazln12VsT3uMLqveC7MSgKL6YxecKrq+Q03T7M8M/2To7bmtbV+pEoLoKZo87mYuw9tyswksJjSiAXVYnNM73L4qPQTzto7r32q0tL/8vPS+K8Z1g7aMX7+atEOldvT+wTcTwKLad256FRfbFrd3/Icn7XfF2EbKFRj2yHVSMpyVeWkC215n4B7SWAxtTsWneqLTev721tBUvET9ep9hf5azGm2HZKJhCu9SGK1U70tvU/AfSSwmF71RbWnHu229/dVq8aqch8ZafvPtqq0orWbZ1nfbMlUMQp3uCMRrC+fp93gLwksePRbVC04+83cVjPfO+3d8ZKgv3KX2RJWxFI96fLuw4hPxzrwL+8ScA8JLPif1gtP9QUnSlsJrgB+yjg32g5IRBnH0h6f7ml5XEMrVdvyybsE9CeBBQutFp4ZFpyq51DdbYa+wv30KTJQXUUW1RIve++lx3EN1dqyF20E6ySw4IWFdb8Wgc3MX9Gc8ZoBrlgmrcx/cL8zsUfWOGuEFm2lrWHbr9EXABFdKZuecdE5214zthWx6IN1eJY5eEbH9djKxXGeQzvV29J7BPQjgQUbziw+My86z/ba22aznxGQ8ZqBXKK+JP7+/j68ZkAEUcfUXi3OHG1xDTPEQN4joA9bCOEN5zwds3dL4ewL9Oz3D/B49DlfB+jn6vY4Y32ddw3YTwUWfLD8pPgdi/Jf79qrdTtla/ds1wvQW/aqFuYye389W1k0Y/xz5P1htraBsySwYKc7kzIV2B5CdMZtHZ4l1c2eNInG89hv9gSN9wdoSwILDlhbhCw+216r11Rf5bpegLtICJDNzH12772Le/7w/gDtSGDBQTMHLGdpM4EKMEam+dccCX21nA8+VRaJe7ZpGzjPIe5wgsPdj2t9WK/FHwAY6eqh5tmt3f/M7fGOdwdoQwUWnLRMyGT5dDuCFp/+ZQuOsl0vALBPpirHx6Pf9aq62rZ8V9A+cI0EFlzwXISyBS+jzXTAu2AuJs+lDs+SWYg14pr52SyrsMzFPy3XKO0D10lgwUWvh5Szz+sB73tlelnNdK0AwBxaJdxUXb3X60uMYGYSWNDA8lOnWSqLWjkSRAkAAI6buToE7pJtnF29XlVX2163DGojaEcCCxqypfCcilsKJdsAYC7Z4r+zlfBinG22DEJfvoUQGlueBWCB3+/TtxRmastM10p+y5cP/Q6AXsQ374n/oT8JLOjgNYn1/DM+85XM9FahP20lrWabbyo8SzjCy3F82Z7R3uvNdE93W6692gn6ksCCTl4XMQvafpkTf54zvb3rY8v5ZvnPwDpzNj1kS2S8u17ryXtifbiXBBZ09JqIEQTslzEYyHSt5LS3j2UcP/SV7YUasss25lTAHyO+hzEksKCztRdJAcF+WdrJMyWibC9QcDdjBH6SkHlPTA/j+BZCuMlWNRZwn8yB5tlrbznfRJq3Mj9LuEIMkUe2Z7VM6Jpf10lewVgSWHCjtSRWpsCGdQIYosv2EgVQRbb5Vzyz7hmzS17BWBJYcLPXJFa2wIZ/CWDI4upco6/nZ72BMYy93F6r0qyHMI4zsGCArSSWxTAXz4xszDVk8umFXz8Genutuno8zD0wkgQWDPL6KY5vMQG2SDoxk71rYas1U2KXO+hnubzOL54dxGALIQxmS2FOApl8PLM/KswxnmVdRw6QXq6Z2fv0URXG8Yw8txxsGYS4VGBBAK+fyqnGik0gw2z0eSKzvQdoYW0Osf5BLCqwIIjXT5FVYwG9mFvmFfnZX31RtG6SgT4a01rVleQVxCOBBYGsBd8CnVgEM1RhbqGqWbcVkof5N5bX2O7IVmbgXhJYENBWEkuwM5bkFUAfredX1VhEp3+Ot1ZlJdaD2CSwIKi1JJZgZxwBTW7Zn1+vsb/n90Zru2jXQ2x7PwDKuL5mvGaIYq3KyvoC8UlgQWBrgbdqLJjTyCQWZOYDIKLSL++3VXUleQU5SGBBcFvnYgl67iOoIQrjnhZm7Uc+ACKiWcfjCO+qrsR5kIMEFiSxFuAIevqTvCKaHi/h5hJm4QMgItIn+1uL58R4kI8EFiRiSyEcVzFAveslPFrbRbse2rn7Bb7K2inxAe/ZMgi1SGBBMrYU3kdwQ3Stv7XNHMJMXtdOY4CR9L/2bBmEeiSwIClbCvuSvGJG5hBmVKUai/zMwe3YMgg1SWBBYrYU9iHAAaqL+KI88ppUZEANtgxCbf83+gKAa56L8XJhXvszgD1et1TBTPR5RnvOwfricaquoD4VWFDEuy2F0T5lj0ygU4vnWYdnOQfr1nERq+m4xjM9ZqvCyroB9ajAgkLWKidUY+2njeAPL0+MtFy3lv8MM1GJtc9W4urxMHdARRJYUMxWwkog9J62gX8ZD/VFXxdeE1mvfw7MTdUVzEcCC4paezFxtg0A2VivmFX0JPMoW7GstoL6nIEFhW19S6HtQf8S8JCBMQswHzHbv54xm28ZhDlJYEFxWwkrAdEfAp66Kj3bSvdyxuz3D59Y02vzfP94t2XQGgFzsIUQJmFLIeRjfAIwO1sGgScJLJiIbyn814z3TB76J3dwxg7kMOtY9S2DwJIEFkzm07cULn+mshmDQPLo0T99kxv86/V8SIhupiSWqitgjQQWTGrmaqzq94dn/PTuBT3Ly7tnSWtrL8YVPsCZKblBbaqugC0SWDCxT9VYggS4X6ux9+n3vL68G+9U9+4FeLkebv0MRFA9Rnt3UDuAbyEE3n5LYbVvvREEMQP9HP6195vKjBsyqPithM+YU/IKeEcCC3g8HusJq2ewXyVIEgTBukrjnOM8/39pDzKo1E/XEsxbCS1gbhJYwH+2ElaVgiSIrEWwLuCnqrPrkDEBcb2rujJugVcSWMAPW9VYmbcUeoGZx8zPutq9V7sfzru7L2T94CbrdXNO5ue9VmGl6gr4RAILWLVWjZV1S6FgCD7LOLbhE/M/1WWcu7e2DKq6Aj7xLYTAW8vA6BlUrP1ZVF5eyOJqX9XXqUrfhhrWYscs8SQQgwos4KNK1VgA/GQ+/0mbkEWGvqrqCmhBAgvY7d3ZWBH51J5Z6OsAc8sUjznrCjhLAgs4ZKsaK9oB7wKjOc343Kvec9X74hj94LjIiQz6ivbstw5qV3UFnCWBBZzymrSypRCuGT1+JArgp9HjErJ6TVSpugJacIg7cNoyKIl0wLsAiVno6wAsPeOwkTHY8zqWf2atAlpQgQVcFqkaS5DELPR1WqtWbWSMMKvRMZiqK6AXCSygiXdnY91FkER21RIIZxnLRKEvktXoGMxZV0APthACTb1uIYywpZA5zPKi2WM8zdJ25DN6O1RW2o27vK5JYj6gJwksoLnXs7HWzspqTaBOFVtJXy8FABzRO5G5VXUF0IsEFtDNVjVW6+BGwEQ1r59kL/+sNeOHJZU7f2kHKrgj9vIBC3AXCSygq7XgpmWg4wWDyvRtACLpFc8B7OEQd+AWrxVYDqumJYnMcyK2W8RrYqwz68XVflShH1pneWrVF15jOIe0A3dTgQXc6vUTuyuf3lV4wYARfGpONndvbTQ2qObKGFJ1BUQhgQXcbu1Q96NBleQVnGPsAMzpTBLrSqwG0JothMAwz0DqGRDZ6gD9efngk6jz8d7r8pINbSzjM+MKiEAFFjDU6yHve0rTBVEAc/pUQWJ9gPf2VGEtE8XGFBCJCiwghOVBoO8+ZRdI8UqfqMOzZI9lRciTCpF1UavpGGtvnOWQdiAaFVhAKMug6vVlxMsJAI/Hz+pdawMcs1aJtRV/AUQhgQWEs3wx8XICwBZrA1y3rMYypoDIJLCAsF4TWYIqqvMSQRRnvq0MyGVZ9W6sAxlIYAHh+QYcKttKWs32UmF8A9xrtnUGyE8CC0jBeSesyZ70eHf9+jzQgmo6XllXgKwksIBUvNQzm2Wf3/u158u/BwCPh9gJyE8CC0hp70s9RHW07777xqjnv3/9/Vv/DtgmGUxF4iWgAgksIDUHkDKrTy8jr4ku44OjZtp6ticZPEM7UI/+C1QigQWkZ1vhnDK/WN997dETEZGvjdr2rBsV1pjocwDtZe6vAFsksIAyKrxkwDtXKg69wDKLvdtnz2zjPfP34E5iIKAyCSygHIksWCeJRWVrc76z4JiFmAeYgQQWUJZPy4moRX/Un7lLlqTn1jVunQV35Z6ytAnz0B+BWfwafQEAvT1fNl6/WQqA/Pa+vC+34EIFz9hG8gqYhQosYAq2FdYiYK/Ds+SKM+dYzZrEUjlWh1gGmJUEFjAViSwy8/IJfxkPzEbsAsxOAguYkkQWI3jhhvFaVGGpZuJOYhWAPySwgKlJZAG8J1kDY4hNAP4lgQXwkMiCESRFAH4SiwCsk8ACWJDIik/S4zxtB3/MWlU2631nIfYAeE8CC2CFRBatXX1p9NIJsUgG0YpYA2AfCSyANySyAIAexBYAx0hgAewgkUUL+g9ZRaw2inhNsIe1AOAcCSyAAySyxsr8srq87mf/Wft3vURru2jXA7OQ+BtH7ABwjQQWwAkSWVzx2l9eE1qvP+NlE9prkciRDGIPsQJAGxJYABdIZNHCWr9ZS2oBkIfYAKAtCSyABiSyaO21AmvEtkNgmyQzW8QCAH1IYAE0JJFFD3srtLb6my1OtBBxu9yd1ySJzCfWfoC+JLAAOpDIai/ai/Noe5JaUdvLsySKrQTYkQRxRhGTkZlZ6wHuIYEF0JFEFnfa8xIO/JQl+Uss1naAe0lgAdxAIosR9DNYJ2HFFdZygDEksABuJJEFZBZx69mna6q+HZD7WLsBxpLAAhjgNZG1/DOoLFryg3pUV9GSdRogDgksgIGWwbBPdrdJegCfmEOPiVhNF4n+BBCPBBZAELYXApxjvqQVazBAXBJYAMFIZAHAvay5APFJYAEE5ZwsICJbz6jC+gqQiwQWQHCzn5PlRbkOzxJimTUZOeNaClCBBBZAIrYXAsA51k6A3CSwABKyvRAAPrNOAtQhgQWQ2OzbCwFgjTURoB4JLIAiVGUBd5n17CRis/4B1CaBBVBMpaosL8h1eJYQU4VkZPa1DoB9JLAAClOVBUBF1jWA+UhgAUygUlUWAPOyhgHMSwILYDKqsgDIxHoFwOMhgQUwLVVZ3CX7+Tqsq3B2ErFZmwBYksACIGRVlhdjgHtESkZGWocAiEUCC4D/rFVlvf45ALRkvQFgDwksAFbZYghAT9YWAI6QwALgo4hbDAHIxzoCwFlfv7+tHAAc1/MlJMpZLFznWdbnGdfR61lKWgHQggosAE5xXhYAW6wLALQmgQXAZZJZAJj/AehJAguApiSzAOZhngfgLhJYAHQjmQX1/f7+dg7WZMznAIwggQXALfYms7wI1+FZQi7vkpGSVgCMJoEFwO1UZgHEZ34GIBIJLACGWktmPf+/FyaAeyyTVeZgACKSwAIgjNdk1vKFau1nADhubW59MscCENXX72+rFACxednKx/lX8/HM43o3hz4e5lEAclCBBUB4awe9r/3vrZ8HmMXWnOg8KwCyk8ACIJ2tQ+Cf/05SC5jBu7nuNdFvDgQgOwksAFJ7V531LtG19ncBotozhy3PDjS/AVCNBBYApXyqzlqS1AIi2js3fZrjAKASh7gDMI09L3teCK+zXWlenv05e+cd8xMAM1OBBcA0PlVg/f7+VqUFdHVkTpGwAoC/JLAAmNaZhNbaz639LoCjc4WEFQBsk8ACgP/Zk9Ba+7m1n936OaCmM3OAhBUA7CeBBQAb9ia01n527ee3fg7I5ezYlrACgPMc4g4AJ515Ga3+AusQbyr2gbPjtvp4B4A7qcACgJPOHPjukHiIrVV11d6/BwDsI4EFAI3s2Ub4KaG19ne2fg645spYU10FAPeSwAKAjlpUae39e8C2lsmqI38XAGjDGVgAMFiVA6Ernn3EORH6Qqtzq478XQCgHxVYADDY3oqr1591nhb8cabv7xljAEAcElgAENDWS/S7F3VbD5lBq2SVcQAAuUhgAUAiR6u1JLXI7GhfVVUFAHVJYAFAckeqtbb+jqQWo+3tg0f6NQBQh0PcAWBCe5IARw7BjnBoN7F86hPv+pckFQDwSgUWAEzozDYsVVqc9S4htfYz+hUA8EoFFgBwyKdkhOQD+ggA0JoKLADgkDPf+Hbm9xCPZwsAjCKBBQA0tTd5sTcZcvT3sp9nAABkIYEFAAxxNBlyNNnS6r8bkbYAAGYjgQUApNAq2dIq+TOSxBMAMBsJLABgKpI/AAD5/Bp9AQAAAADwjgQWAAAAAKH9P8i0fVEC/u9UAAAAAElFTkSuQmCC;aspect=fixed;shadow=0;" vertex="1" parent="1">
          <mxGeometry x="170" y="70" width="320" height="320" as="geometry" />
        </mxCell>
        <mxCell id="In7WwxdyDKiCLf6W2db1-3" value="" style="ellipse;whiteSpace=wrap;html=1;aspect=fixed;" vertex="1" parent="1">
          <mxGeometry x="310" y="210" width="40" height="40" as="geometry" />
        </mxCell>
      </root>
    </mxGraphModel>
  </diagram>
</mxfile>
